Seeking a Friend for the End of the World 2012 R5 CAM AUDIO XviD - MATiNE 
 
http://www.imdb.com/title/tt1307068/

As an asteroid nears Earth, a man finds himself alone 
after his wife leaves in a panic. He decides to take a 
road trip to reunite with his high school sweetheart. 
Accompanying him is a neighbor who inadvertently
puts a wrench in his plan.

Sources:
Video: Russian DVDR
Audio: 

Video:
ID                                       : 0
Format                                   : MPEG-4 Visual
Format profile                           : Advanced Simple@L5
Format settings, BVOP                    : 2
Format settings, QPel                    : No
Format settings, GMC                     : No warppoints
Format settings, Matrix                  : Default (MPEG)
Codec ID                                 : XVID
Codec ID/Hint                            : XviD
Duration                                 : 1h 36mn
Bit rate                                 : 1 700 Kbps
Width                                    : 720 pixels
Height                                   : 304 pixels
Display aspect ratio                     : 2.35:1
Frame rate                               : 25.000 fps
Color space                              : YUV
Chroma subsampling                       : 4:2:0
Bit depth                                : 8 bits
Scan type                                : Progressive
Compression mode                         : Lossy
Bits/(Pixel*Frame)                       : 0.311
Stream size                              : 1.15 GiB (93%)
Writing library                          : XviD 1.2.1 (UTC 2008-12-04)

Audio:
ID                                       : 1
Format                                   : MPEG Audio
Format version                           : Version 1
Format profile                           : Layer 3
Mode                                     : Joint stereo
Mode extension                           : MS Stereo
Codec ID                                 : 55
Codec ID/Hint                            : MP3
Duration                                 : 1h 36mn
Bit rate mode                            : Constant
Bit rate                                 : 128 Kbps
Channel(s)                               : 2 channels
Sampling rate                            : 44.1 KHz
Compression mode                         : Lossy
Stream size                              : 88.7 MiB (7%)
Alignment                                : Split accross interleaves
Interleave, duration                     : 40 ms (1.00 video frame)
Writing library                          : LAME3.99r
Encoding settings                        : -m j -V 4 -q 2 -lowpass 17 -b 128


Poster:

 
http://i.imgur.com/imDLF.jpg


Screenshots:

 
http://i.imgur.com/4FWjm.png

 
http://i.imgur.com/afi3H.png

 
http://i.imgur.com/csENN.png


ENJOY!